<svg xmlns="http://www.w3.org/2000/svg" width="200" height="140" viewBox="0 0 200 140">
    <defs>
        <linearGradient id="fr6vvnlhla" x1="45.336%" x2="52.346%" y1="83.96%" y2="24.936%">
            <stop offset="0%" stop-color="#0272BC"/>
            <stop offset="100%" stop-color="#008AE5"/>
        </linearGradient>
        <linearGradient id="sh72u5y6vb" x1="45.816%" x2="51.008%" y1="85.304%" y2="26.257%">
            <stop offset="0%" stop-color="#1B219E"/>
            <stop offset="100%" stop-color="#008AE5"/>
        </linearGradient>
    </defs>
    <g fill="none" fill-rule="evenodd">
        <g fill-rule="nonzero">
            <g>
                <g>
                    <path fill="url(#fr6vvnlhla)" d="M50.723.04C34.805.083 21.911 12.858 21.867 28.63v14.04c-3.164 0-5.97 0-8.04-.08-3.569-2.53-8.48-2.035-11.463 1.153-2.983 3.189-3.11 8.078-.294 11.413 2.816 3.335 7.695 4.077 11.39 1.73 2.388 0 5.293.1 8.407.139v18.269c-2.223 3.672-1.383 8.406 1.972 11.107 3.354 2.7 8.203 2.547 11.376-.361 3.173-2.908 3.706-7.686 1.25-11.21V57.213c7.412.059 13.532.089 14.298.089 8.811-.006 17.138-4 22.607-10.845 6.94-8.593 8.287-20.37 3.463-30.283C72.008 6.26 61.87-.03 50.763 0l-.04.04zM8.733 53.555c-1.614 0-3.069-.966-3.682-2.446-.613-1.48-.263-3.18.886-4.304 1.148-1.123 2.868-1.449 4.354-.823 1.486.626 2.442 2.08 2.422 3.679-.027 2.159-1.801 3.894-3.98 3.894zM29.28 83.517c-1.55 0-2.947-.926-3.54-2.345-.592-1.42-.263-3.053.835-4.138 1.098-1.085 2.747-1.407 4.178-.817 1.431.591 2.362 1.978 2.358 3.514-.005 2.093-1.719 3.786-3.83 3.786zm21.443-40.669l-14.298-.06V28.672c-.016-6.53 4.469-12.228 10.865-13.803 1.123-.278 2.276-.418 3.433-.414h.488c7.897.133 14.19 6.584 14.054 14.409-.134 7.824-6.645 14.06-14.542 13.926v.06z" transform="translate(-76 -263) translate(76 263) translate(59.408)"/>
                    <path fill="#110C8B" d="M51.698 14.503h-.487c7.897.133 14.19 6.585 14.054 14.41-.134 7.824-6.645 14.059-14.542 13.925-.836 0-27.264-.079-36.935-.217-3.57-2.53-8.48-2.036-11.464 1.153-2.983 3.188-3.109 8.078-.293 11.413 2.815 3.335 7.694 4.076 11.389 1.73 11.671.247 35.731.375 37.303.375 8.812-.006 17.138-4 22.607-10.845 2.961-7.15 2.134-15.29-2.208-21.711-4.34-6.42-11.624-10.276-19.424-10.282v.049zM8.733 53.555c-1.614 0-3.069-.966-3.682-2.446-.613-1.48-.263-3.18.886-4.304 1.148-1.123 2.868-1.449 4.354-.823 1.486.626 2.442 2.08 2.422 3.679-.027 2.159-1.801 3.894-3.98 3.894z" transform="translate(-76 -263) translate(76 263) translate(59.408)"/>
                    <path fill="url(#sh72u5y6vb)" d="M79.629 28.67c0-15.815-12.94-28.635-28.9-28.635-15.962 0-28.901 12.82-28.901 28.636v46.624c-2.224 3.672-1.384 8.406 1.97 11.107 3.355 2.7 8.204 2.547 11.377-.361 3.173-2.908 3.706-7.686 1.25-11.21v-46.16c-.016-6.53 4.469-12.228 10.865-13.803 1.123-.278 2.276-.418 3.433-.414h.995c7.802 0 15.09 3.854 19.43 10.277 4.341 6.423 5.163 14.568 2.192 21.716 4.074-5.046 6.292-11.315 6.289-17.776zM29.28 83.518c-1.55 0-2.947-.926-3.54-2.345-.592-1.42-.263-3.053.835-4.138 1.098-1.085 2.747-1.407 4.178-.817 1.431.591 2.362 1.978 2.358 3.514-.005 2.093-1.719 3.786-3.83 3.786z" transform="translate(-76 -263) translate(76 263) translate(59.408)"/>
                </g>
                <path fill="#000074" d="M126.746 110.59c2.05 0 3.712 1.558 3.712 3.48v23.417h-3.562v-3.041c-1.71 2.151-4.445 3.37-7.304 3.256-5.97 0-10.368-3.947-10.368-9.824 0-5.878 4.368-9.787 10.368-9.787 2.77-.096 5.426 1.046 7.154 3.079v-10.58zm64.995 3.517v4.208h2.816c.811-.002 1.59.298 2.163.836.574.538.895 1.268.892 2.028h-5.87v10.403c0 2.061 1.154 3.228 3.203 3.228 1.05.008 2.073-.321 2.896-.933l1.164 2.49c-1.288.916-2.873 1.387-4.488 1.335-4.129 0-6.497-2.137-6.497-6.018v-10.57h-3.473v-2.799h3.473v-4.208h3.721zm-141.323 3.965c5.97 0 10.13 3.993 10.13 9.9 0 .307-.04.745-.08 1.072H43.84c.467 3.368 3.373 5.598 7.433 5.598 1.34.024 2.665-.261 3.86-.83 1.328-.639 2.937-.38 3.964.615l.136.14c-2.065 2.114-5.026 3.256-8.08 3.116-6.617 0-11.025-4.096-11.025-9.824-.11-2.602.933-5.13 2.882-6.984 1.95-1.855 4.63-2.87 7.407-2.803zm45.433 0c5.91 0 10.13 3.993 10.13 9.9 0 .307-.04.745-.08 1.072H89.273c.467 3.368 3.363 5.598 7.423 5.598 1.343.024 2.672-.261 3.87-.83 1.328-.639 2.937-.38 3.963.615l.137.14c-2.065 2.114-5.027 3.256-8.08 3.116-6.617 0-11.025-4.096-11.025-9.824-.11-2.602.932-5.13 2.882-6.984 1.95-1.855 4.63-2.87 7.407-2.803zm50.03 0c5.97 0 10.129 3.993 10.129 9.9 0 .307-.04.745-.08 1.072h-16.627c.468 3.368 3.364 5.598 7.423 5.598 1.344.025 2.673-.26 3.871-.83 1.328-.639 2.937-.38 3.963.615l.137.14c-2.065 2.114-5.027 3.256-8.08 3.116-6.617 0-11.025-4.096-11.025-9.824-.111-2.602.932-5.13 2.882-6.984 1.95-1.855 4.63-2.87 7.407-2.803zm-71.204.02c3.671 0 6.726 1.417 8.348 4.095l-2.826 1.707c-1.21-1.77-3.321-2.815-5.562-2.752-1.914-.066-3.768.627-5.11 1.909-1.34 1.282-2.043 3.034-1.935 4.827 0 4.17 2.985 6.782 7.045 6.782 2.25.053 4.365-1.01 5.562-2.799l2.826 1.661c-1.622 2.687-4.677 4.133-8.348 4.133-6.359.047-10.826-4.049-10.826-9.777 0-5.729 4.517-9.787 10.826-9.787zm-37.015 0v3.376c-.285-.017-.571-.017-.856 0-3.98 0-6.458 2.277-6.458 6.484v9.573c-2.05 0-3.711-1.558-3.711-3.48v-15.73h3.562v3.219c1.313-2.286 3.86-3.443 7.463-3.443zm142.935 8.34v11.055c-2.05 0-3.711-1.558-3.711-3.48v-7.174c0-3.732-1.99-5.598-5.523-5.598-3.98 0-6.497 2.211-6.497 6.382v9.898h-3.712v-19.2h3.552v2.892c1.513-1.95 4.14-3.079 7.394-3.079 4.985-.037 8.497 2.65 8.497 8.304zM10.557 112.11c7.035 0 11.294 3.33 11.294 8.844 0 5.514-4.259 8.845-11.294 8.845H3.871v4.058c0 .963-.408 1.886-1.134 2.566-.67.628-1.56 1.003-2.5 1.056l-.237.007v-25.376h10.557zm109.343 9.03c-3.89 0-6.965 2.641-6.965 6.737 0 4.095 2.985 6.782 6.965 6.782s6.876-2.687 6.876-6.782c0-4.096-2.985-6.736-6.876-6.736zm-109.462-5.877H3.87v11.382h6.567c4.955 0 7.542-2.062 7.542-5.69 0-3.62-2.587-5.692-7.542-5.692zm39.98 5.755c-3.374 0-6.208 2.38-6.577 5.525h13.154c-.37-3.145-3.203-5.525-6.577-5.525zm45.428.041c-3.357 0-6.182 2.357-6.572 5.484h13.144c-.39-3.127-3.215-5.484-6.572-5.484zm50.035-.041c-3.374 0-6.208 2.38-6.578 5.525h13.155c-.37-3.145-3.203-5.525-6.577-5.525z" transform="translate(-76 -263) translate(76 263)"/>
            </g>
        </g>
    </g>
</svg>
